<svg width="16" height="16" viewBox="0 0 16 16" fill="none" xmlns="http://www.w3.org/2000/svg">
<path fillRule="evenodd" clipRule="evenodd" d="M14.354 4.64601C14.4006 4.69245 14.4375 4.74763 14.4627 4.80837C14.4879 4.86912 14.5009 4.93424 14.5009 5.00001C14.5009 5.06578 14.4879 5.1309 14.4627 5.19164C14.4375 5.25239 14.4006 5.30756 14.354 5.35401L8.35402 11.354C8.30758 11.4006 8.2524 11.4375 8.19166 11.4627C8.13091 11.4879 8.06579 11.5009 8.00002 11.5009C7.93425 11.5009 7.86913 11.4879 7.80839 11.4627C7.74764 11.4375 7.69247 11.4006 7.64602 11.354L1.64602 5.35401C1.55214 5.26012 1.49939 5.13278 1.49939 5.00001C1.49939 4.86723 1.55214 4.7399 1.64602 4.64601C1.73991 4.55212 1.86725 4.49938 2.00002 4.49938C2.1328 4.49938 2.26014 4.55212 2.35402 4.64601L8.00002 10.293L13.646 4.64601C13.6925 4.59945 13.7476 4.5625 13.8084 4.5373C13.8691 4.51209 13.9343 4.49911 14 4.49911C14.0658 4.49911 14.1309 4.51209 14.1917 4.5373C14.2524 4.5625 14.3076 4.59945 14.354 4.64601Z" fill="black"/>
</svg>
